<?xml version="1.0" encoding="utf-8"?>
<!-- Generator: Adobe Illustrator 19.1.0, SVG Export Plug-In . SVG Version: 6.00 Build 0)  -->
<svg version="1.1" id="Layer_1" xmlns="http://www.w3.org/2000/svg" xmlns:xlink="http://www.w3.org/1999/xlink" x="0px" y="0px"
	 viewBox="54 297 720 200" style="enable-background:new 54 297 720 200;" xml:space="preserve">
<style type="text/css">
	.st0{fill:#FFFFFF;}
</style>
<polygon class="st0" points="150.1,313.5 666.6,312 672.1,481.9 168.2,485 "/>
<path d="M205.8,451.8L205.8,451.8h377.7l-6.9,23.1H198.1L205.8,451.8z M173.6,358.1L173.6,358.1h63.2l14.6-38.8H632L597.1,413h65.3
	l-7.5,20.9H212.6l19.7-52.1H167L173.6,358.1z M766.9,304H128.7L89.8,413h63.8l-9.1,20.9H82.9l-20,56.1h635.8L739,381.8h-61.6
	l6.9-23.7h62.1L766.9,304z"/>
<path d="M391.6,361.2L391.6,361.2h6.8c0,2,0.5,3.4,1.4,4.3c1,0.8,2.6,1.3,4.9,1.3c1.1,0,2.2-0.2,3.4-0.5c1.2-0.3,2.1-0.8,2.9-1.6
	c0.8-0.7,1.2-1.6,1.3-2.7c0-1.1-0.4-1.9-1.2-2.3c-0.8-0.5-2.1-0.9-3.8-1.3c-1.9-0.5-3.8-0.9-5.5-1.4c-1.8-0.5-3.3-1.1-4.6-1.9
	c-1.3-0.8-2-1.9-2.3-3.4c-0.1-0.5-0.1-1.1-0.1-1.6c0-1.5,0.3-3,0.9-4.5s1.5-2.9,2.8-4.2c1.2-1.3,2.8-2.3,4.7-3
	c1.9-0.8,4.1-1.2,6.6-1.2c2,0,3.8,0.3,5.5,0.9s3.1,1.6,4.2,2.9c1.1,1.3,1.6,3,1.6,5c0,0.9,0,1.6-0.1,2h-6.8c0-1.9-0.5-3.2-1.6-4
	c-1.1-0.7-2.3-1.1-3.8-1.1c-1.9,0-3.5,0.4-5,1.2c-1.5,0.8-2.3,2.1-2.3,3.8c0,0.8,0.4,1.4,1.1,1.8s2.1,0.9,4.2,1.4s3.2,0.8,3.3,0.8
	c1.8,0.5,3.1,0.8,4,1.1c0.9,0.3,1.8,0.7,2.6,1.2c0.8,0.5,1.5,1.2,1.9,1.9c0.5,0.9,0.7,2.1,0.7,3.5s-0.3,2.9-1,4.4
	c-0.6,1.5-1.6,2.9-2.9,4.2s-3,2.3-5.1,3.1c-2.1,0.8-4.5,1.2-7.2,1.2c-2.4,0-4.5-0.3-6.3-0.9s-3.2-1.6-4.2-2.9c-1-1.3-1.5-3-1.6-5
	C391.4,362.9,391.5,362,391.6,361.2 M344.1,371.6L344.1,371.6l7.2-33.6h7.3l8.5,23.7l5-23.7h6.5l-7.1,33.6h-7l-8.7-24.2l-5.1,24.2
	C350.7,371.6,344.1,371.6,344.1,371.6z M309.9,356.7L309.9,356.7c0.3-2.5,1-4.9,2.1-7.3c1.1-2.3,2.5-4.5,4.3-6.3
	c1.8-1.9,3.9-3.3,6.3-4.4c2.4-1.1,5.1-1.6,7.9-1.6c2.1,0,3.9,0.3,5.5,0.9s2.8,1.4,3.8,2.4s1.7,2.2,2.2,3.6s0.7,2.8,0.7,4.4h-6.8
	c-0.3-1.7-1.1-3.1-2.2-4c-1.1-1-2.4-1.4-3.7-1.4c-2.8,0-5.1,0.8-7.1,2.3c-1.9,1.5-3.4,3.5-4.4,6c-1,2.4-1.5,5-1.7,7.8
	c0.1,4.9,2.5,7.4,7.2,7.5c1.8,0,3.5-0.4,4.9-1.2c1.5-0.8,2.6-1.8,3.5-2.9c0.9-1.2,1.5-2.3,1.9-3.3h-7.8l1.1-5.6h14.1l-3.7,18h-4.7
	l0.2-4.2c-0.8,1.1-1.9,2-3.2,2.8c-1.3,0.8-2.6,1.4-4.1,1.8c-1.5,0.4-3,0.6-4.5,0.6c-2.1,0-4.1-0.5-6-1.4c-1.8-0.9-3.3-2.3-4.4-4.3
	c-1.1-1.9-1.6-4.3-1.6-7.2C309.7,358.7,309.8,357.7,309.9,356.7z M294.7,371.6L294.7,371.6l7.2-33.6h7l-7.1,33.6H294.7z M454,369.9
	L454,369.9l-0.4,1.7h0.4V369.9z M454,337.9L454,337.9v1.7l-0.9,4.2h-17.8l-1.6,7.1h16.5l-1.3,5.9h-16.4l-1.9,8.7h18.6l-1.2,5.9
	h-25.5l7.2-33.6H454V337.9z M264.4,361.2L264.4,361.2h6.8c0,2,0.5,3.4,1.4,4.3c1,0.8,2.6,1.3,4.9,1.3c1.1,0,2.2-0.2,3.4-0.5
	c1.1-0.3,2.1-0.8,2.9-1.6c0.8-0.7,1.3-1.6,1.3-2.7c0-1.1-0.4-1.9-1.2-2.3c-0.8-0.5-2.1-0.9-3.8-1.3c-1.9-0.5-3.8-0.9-5.5-1.4
	c-1.8-0.5-3.3-1.1-4.6-1.9c-1.3-0.8-2-1.9-2.3-3.4c-0.1-0.5-0.1-1.1-0.1-1.6c0-1.5,0.3-3,0.9-4.5c0.6-1.5,1.5-2.9,2.8-4.2
	c1.2-1.3,2.8-2.3,4.7-3c1.9-0.8,4.1-1.2,6.6-1.2c2,0,3.8,0.3,5.5,0.9c1.7,0.6,3.1,1.6,4.2,2.9c1.1,1.3,1.6,3,1.6,5
	c0,0.9,0,1.6-0.1,2H287c0-1.9-0.5-3.2-1.6-4c-1.1-0.7-2.3-1.1-3.8-1.1c-1.9,0-3.5,0.4-5,1.2c-1.5,0.8-2.3,2.1-2.3,3.8
	c0,0.8,0.4,1.4,1.1,1.8c0.7,0.4,2.1,0.9,4.2,1.4s3.2,0.8,3.3,0.8c1.8,0.5,3.1,0.8,4,1.1c0.9,0.3,1.8,0.7,2.6,1.2
	c0.8,0.5,1.5,1.2,1.9,1.9c0.5,0.9,0.7,2.1,0.7,3.5s-0.3,2.9-0.9,4.4c-0.6,1.5-1.6,2.9-2.9,4.2c-1.3,1.3-3,2.3-5.1,3.1
	c-2.1,0.8-4.5,1.2-7.2,1.2c-2.4,0-4.5-0.3-6.3-0.9s-3.2-1.6-4.2-2.9c-1-1.3-1.5-3-1.6-5C264.2,362.9,264.3,362,264.4,361.2z
	 M454,339.6L454,339.6l0.4-1.7H454V339.6z M472,337.9L472,337.9v5.9h-5.6l-1.8,9h7.4v5.7c-0.2,0-0.4,0-0.7,0h-7.9l-2.8,13.2H454V370
	l6.9-31.9H472V337.9z M472,358.5L472,358.5v-5.7h1c1.1,0,2.2-0.2,3.2-0.7s1.8-1.1,2.4-2c0.6-0.8,0.9-1.8,0.9-2.9c0-1-0.3-1.8-1-2.5
	c-0.7-0.6-1.6-0.9-2.9-0.9H472v-5.9h6.6c1.6,0,3.1,0.3,4.3,1c1.2,0.7,2.1,1.6,2.8,2.7c0.6,1.1,1,2.4,1,3.8c0,0.3,0,0.7-0.1,1.2
	c-0.1,0.9-0.4,1.9-0.8,2.8s-0.9,1.8-1.6,2.6c-0.6,0.8-1.4,1.5-2.2,2.1c-0.8,0.6-1.7,1-2.6,1.2c2,0.7,3,2.2,3,4.4
	c0,0.8-0.1,1.6-0.2,2.2s-0.3,1.7-0.6,3.1c-0.3,1.5-0.5,2.5-0.6,3.2c0,0.3,0,0.6-0.1,0.9c0.1,0.8,0.4,1.3,1,1.5l-0.2,0.9h-7.8
	c0-0.2,0-0.6,0-1.2c0-0.7,0.1-1.5,0.2-2.2c0.1-0.8,0.3-1.6,0.5-2.6s0.3-1.8,0.4-2.4s0.2-1.2,0.2-1.7c0-1.1-0.3-1.9-0.8-2.3
	C474,358.8,473.1,358.5,472,358.5z M518.9,364L518.9,364l-1.6,7.6h1.6V364z M518.9,337.9L518.9,337.9v2.9L502,371.6h-6.6l-4.2-33.6
	h7.5l1.8,25.7l12.8-25.7h5.6V337.9z M564.6,371.6L564.6,371.6l7.2-33.6h24.7l-1.3,5.9h-17.8l-1.6,7.1h16.5l-1.3,5.9h-16.4l-1.9,8.7
	h18.6l-1.3,5.9h-25.4V371.6z M533,354.3L533,354.3c0.6-2.4,1.4-4.7,2.5-6.7c1.1-2.1,2.5-3.9,4.1-5.5c1.6-1.6,3.5-2.8,5.7-3.7
	c2.2-0.9,4.5-1.3,7.1-1.3c1.9,0,3.6,0.3,5.1,0.8s2.7,1.3,3.7,2.2c1,1,1.7,2.1,2.2,3.3c0.5,1.3,0.7,2.6,0.7,4c0,0.3,0,0.8-0.1,1.5h-7
	c0-1.2-0.3-2.2-0.8-3.1c-0.5-0.9-1.2-1.5-2.1-2c-0.9-0.4-1.9-0.7-3-0.7c-1.9,0-3.6,0.5-5,1.5c-1.5,1-2.7,2.2-3.6,3.8
	c-1,1.6-1.7,3.3-2.2,5.1s-0.8,3.6-0.9,5.4c0,1.7,0.3,3,0.8,4.1s1.3,1.9,2.3,2.4c0.9,0.5,2,0.8,3.2,0.8c1,0,1.9-0.2,2.8-0.5
	c0.9-0.3,1.8-0.8,2.6-1.3c0.8-0.6,1.5-1.3,2.1-2c0.6-0.8,1-1.6,1.3-2.5h7.1c-0.6,1.4-1.4,2.8-2.3,4.2s-2.1,2.7-3.5,4
	c-1.4,1.2-3,2.3-4.9,3c-1.9,0.8-4,1.2-6.2,1.2c-0.1,0-0.3,0-0.5,0c-0.2,0-0.4,0-0.5,0c-2.6-0.1-4.8-0.7-6.6-1.7
	c-1.8-1.1-3-2.5-3.9-4.3c-0.8-1.8-1.3-3.9-1.3-6.3C532.3,358.4,532.5,356.4,533,354.3z M518.9,340.9L518.9,340.9l1.6-2.9h-1.6V340.9
	z M518.9,371.6V364l5.5-26.1h7l-7.1,33.6h-5.4V371.6z"/>
<path d="M297.4,390.3L297.4,390.3v8.1l-3,5.5h3v4h-5.1l-2.6,4.8h-5.1L297.4,390.3z M266.7,412.7L266.7,412.7l4.9-23.1h4.8l-4,18.9
	h11.5l-0.9,4.2H266.7z M297.4,408L297.4,408v-4h3l-1-9.3l-2,3.7v-8.1l0.4-0.7h5.5l3.2,23.1h-5.3l-0.5-4.8h-3.3V408z M322,389.6
	L322,389.6v4h-3.8l-1.1,5.1h4.8v3.9h-5.7l-1.3,6.1h6.1c0.3,0,0.6,0,0.9-0.1v4c-0.6,0.1-1.2,0.1-1.8,0.1h-10.7l4.9-23.1H322z
	 M322,412.6L322,412.6v-4c0.5-0.1,1-0.3,1.4-0.5c0.7-0.4,1.2-0.9,1.5-1.4c0.4-0.6,0.5-1.2,0.5-1.8c0-0.7-0.2-1.3-0.7-1.7
	c-0.5-0.4-1.2-0.7-2.1-0.7H322v-3.9h0.8c1.3,0,2.3-0.3,2.9-0.8c0.7-0.5,1-1.2,1.2-2c0-1.5-1-2.3-2.9-2.3h-2v-4h3.9
	c1.3,0,2.4,0.2,3.3,0.7c0.9,0.4,1.5,1,1.9,1.8c0.4,0.7,0.6,1.5,0.6,2.4c0,0.7-0.1,1.4-0.4,2.2c-0.3,0.8-0.7,1.5-1.4,2.1
	c-0.6,0.6-1.4,1.1-2.3,1.4c0.9,0.5,1.5,1,2,1.6c0.4,0.6,0.6,1.4,0.6,2.4v0.8c-0.1,1.2-0.5,2.3-1.2,3.5s-1.7,2.2-3.2,3
	C324.8,412.1,323.5,412.5,322,412.6z M354.5,411.7L354.5,411.7l-0.2,1.1h0.2V411.7z M354.5,389.6L354.5,389.6v1l-0.7,3.1h-12.2
	l-1.1,4.9h11.3l-0.9,4.1h-11.2l-1.3,6h12.8l-0.9,4.1h-17.5l4.9-23.1h16.8V389.6z M354.5,390.6L354.5,390.6l0.2-1h-0.2V390.6z
	 M354.5,412.7L354.5,412.7v-1.1l4.7-22.1h4.8l-4,18.9h11.5l-0.9,4.2h-16.1V412.7z M394.1,389.6L394.1,389.6v4h-3l-1.4,6.8h4.4v4
	h-5.3l-1.7,8.4h-4.8l4.9-23.1h6.9V389.6z M394.1,404.4L394.1,404.4v-4h0.3c0.8,0,1.5-0.2,2.1-0.6c0.6-0.4,1.1-0.9,1.5-1.6
	c0.4-0.7,0.5-1.4,0.5-2.2s-0.3-1.5-0.8-1.8c-0.5-0.4-1.3-0.6-2.4-0.6h-1.2v-4h3.5c2.1,0,3.6,0.5,4.5,1.5s1.4,2.4,1.4,4
	s-0.4,3.1-1.2,4.5c-0.8,1.4-1.9,2.6-3.3,3.4c-1.4,0.8-2.9,1.3-4.5,1.3L394.1,404.4L394.1,404.4z M416.2,389.6L416.2,389.6v4h-3.8
	l-1.2,6.2h5.1v3.9c-0.1,0-0.3,0-0.5,0h-5.5l-1.9,9h-4.8l5-23.1H416.2z M416.2,403.7L416.2,403.7v-3.9h0.7c0.8,0,1.5-0.2,2.2-0.5
	c0.7-0.3,1.2-0.8,1.6-1.3c0.4-0.6,0.6-1.3,0.6-2c0-0.7-0.2-1.3-0.7-1.7c-0.4-0.4-1.1-0.6-2-0.6h-2.4v-4h4.6c1.1,0,2.1,0.2,3,0.7
	c0.8,0.5,1.5,1.1,1.9,1.9c0.4,0.8,0.7,1.6,0.7,2.6c0,0.2,0,0.5-0.1,0.8c-0.1,0.6-0.3,1.3-0.5,1.9c-0.3,0.6-0.6,1.2-1.1,1.8
	c-0.4,0.6-0.9,1-1.5,1.4c-0.6,0.4-1.2,0.7-1.8,0.8c1.4,0.5,2.1,1.5,2.1,3c0,0.6,0,1.1-0.1,1.5s-0.2,1.1-0.4,2.1
	c-0.2,1-0.3,1.7-0.4,2.2c0,0.2,0,0.4-0.1,0.6c0.1,0.5,0.3,0.9,0.7,1l-0.1,0.6h-5.3c0-0.2,0-0.4,0-0.8c0-0.5,0-1,0.1-1.5
	s0.2-1.1,0.3-1.8c0.1-0.7,0.2-1.2,0.3-1.7c0.1-0.4,0.1-0.8,0.1-1.2c0-0.7-0.2-1.3-0.6-1.6C417.6,403.9,417,403.8,416.2,403.7z
	 M439.3,389.3L439.3,389.3v4c-0.5,0.1-0.9,0.3-1.4,0.5c-1,0.5-1.9,1.2-2.6,2.2c-0.8,1-1.4,2.2-1.8,3.6c-0.5,1.7-0.7,3.2-0.8,4.5
	c0.1,3.5,1.8,5.2,5.3,5.2c0.5,0,0.9-0.1,1.3-0.2v4c-0.9,0.2-1.9,0.3-2.9,0.3c-2.1-0.1-3.8-0.6-5.1-1.3c-1.3-0.8-2.2-1.8-2.7-3
	c-0.5-1.2-0.8-2.6-0.8-4.1c0.1-0.8,0.2-1.9,0.3-3.1c0.3-1.5,0.7-3,1.3-4.5c0.6-1.4,1.5-2.8,2.5-4c1-1.2,2.4-2.2,3.9-3
	C436.9,389.9,438.1,389.5,439.3,389.3z M439.3,413L439.3,413v-4c0.7-0.2,1.4-0.5,2-0.9c1-0.6,1.8-1.5,2.5-2.5s1.2-2.2,1.5-3.4
	c0.4-1.2,0.5-2.4,0.5-3.6c0-1.7-0.4-3-1.2-4c-0.8-1-2-1.5-3.6-1.5c-0.6,0-1.2,0.1-1.8,0.2v-4c0.6-0.1,1.3-0.2,2-0.2
	c3.4,0,5.8,0.8,7.3,2.4s2.2,3.7,2.2,6.5c0,1.9-0.3,3.8-1,5.6c-0.7,1.8-1.6,3.5-2.9,5s-2.8,2.6-4.5,3.5
	C441.3,412.5,440.4,412.8,439.3,413z M463.3,389.6L463.3,389.6v4h-2.7l-3.3,15.1h4.7c0.4,0,0.8,0,1.2-0.1v4.1
	c-0.4,0-0.8,0.1-1.2,0.1h-10.3l4.9-23.1h6.7V389.6z M499.7,400.9L499.7,400.9c0.4-1.7,1-3.2,1.7-4.6c0.8-1.4,1.7-2.7,2.8-3.8
	c1.1-1.1,2.4-1.9,3.9-2.5s3.1-0.9,4.8-0.9c1.3,0,2.5,0.2,3.5,0.6c1,0.4,1.9,0.9,2.6,1.5c0.7,0.7,1.2,1.4,1.5,2.3s0.5,1.8,0.5,2.8
	c0,0.2,0,0.6-0.1,1h-4.8c0-0.8-0.2-1.5-0.5-2.1c-0.3-0.6-0.8-1.1-1.4-1.4c-0.6-0.3-1.3-0.5-2.1-0.5c-1.3,0-2.5,0.3-3.5,1
	c-1,0.7-1.8,1.5-2.5,2.6s-1.2,2.3-1.5,3.5c-0.3,1.3-0.5,2.5-0.6,3.7c0,1.1,0.2,2.1,0.6,2.9s0.9,1.3,1.5,1.7c0.6,0.4,1.4,0.6,2.2,0.6
	c0.7,0,1.3-0.1,2-0.4c0.6-0.2,1.2-0.5,1.8-0.9c0.6-0.4,1-0.9,1.5-1.4c0.4-0.5,0.7-1.1,0.9-1.7h4.9c-0.4,1-0.9,2-1.6,2.9
	c-0.6,1-1.4,1.9-2.4,2.7c-1,0.9-2.1,1.6-3.4,2.1s-2.7,0.8-4.3,0.8c-0.1,0-0.2,0-0.3,0c-0.1,0-0.3,0-0.3,0c-1.8-0.1-3.3-0.5-4.5-1.2
	c-1.2-0.7-2.1-1.7-2.7-3c-0.6-1.2-0.9-2.7-0.9-4.3C499.2,403.7,499.4,402.3,499.7,400.9z M476.5,404.9L476.5,404.9l3.3-15.3h4.9
	l-3.3,15.5c0,0.1,0,0.3-0.1,0.5c0,0.2,0,0.4-0.1,0.5c0,1,0.4,1.8,1.1,2.4c0.7,0.5,1.6,0.8,2.7,0.8c0.9-0.1,1.8-0.3,2.5-0.6
	c0.7-0.4,1.2-0.8,1.7-1.4c0.4-0.6,0.7-1.2,0.9-1.8l3.3-15.8h5l-3.4,15.8c-0.2,1-0.6,2-1.2,2.9s-1.3,1.8-2.2,2.5
	c-0.9,0.7-2,1.3-3.2,1.8c-1.2,0.4-2.6,0.7-4,0.7c-1.4-0.1-2.7-0.2-3.8-0.5c-1.1-0.3-2.2-0.9-3-1.7c-0.9-0.9-1.3-2.1-1.3-3.8
	C476.3,406.3,476.4,405.5,476.5,404.9z M463.3,412.7L463.3,412.7v-4.1c0.6-0.1,1.2-0.4,1.8-0.8c0.9-0.6,1.7-1.5,2.3-2.6
	c0.6-1.1,1.1-2.4,1.5-3.8c0.3-1.2,0.5-2.4,0.5-3.4c0-1.5-0.3-2.6-1-3.3c-0.6-0.7-1.5-1-2.5-1h-2.5v-4h4.3c2,0,3.6,0.6,4.8,1.9
	c1.2,1.2,1.9,3.2,1.9,5.8c0,0.6,0,1.2-0.1,1.8c-0.2,2.1-0.8,4.3-1.9,6.4s-2.5,3.9-4.2,5.2C466.6,411.8,465,412.5,463.3,412.7z
	 M542.2,405.6L542.2,405.6h-0.8c-0.1,0.6-0.1,1.2-0.2,1.7c0,1.4,0.4,2.5,1,3.4V405.6z M542.2,389.6L542.2,389.6v4.1h-6.8l-4.1,19
	h-4.9l4.1-19h-6.9l0.8-4.1H542.2z M542.2,393.7L542.2,393.7h0.1l0.9-4.1h-1V393.7z M542.2,410.7v-5.1h3.8c0,1.4,0.3,2.3,1,2.9
	s1.8,0.9,3.4,0.9c0.8,0,1.5-0.1,2.3-0.3c0.8-0.2,1.5-0.6,2-1.1c0.6-0.5,0.9-1.1,0.9-1.9c0-0.7-0.3-1.3-0.8-1.6
	c-0.6-0.3-1.4-0.6-2.6-0.9c-1.3-0.3-2.6-0.6-3.8-1c-1.2-0.3-2.3-0.8-3.1-1.3c-0.9-0.6-1.4-1.3-1.6-2.3c-0.1-0.3-0.1-0.7-0.1-1.1
	c0-1,0.2-2.1,0.6-3.1c0.4-1,1.1-2,1.9-2.9c0.9-0.9,1.9-1.6,3.3-2.1c1.3-0.5,2.8-0.8,4.6-0.8c1.3,0,2.6,0.2,3.8,0.6
	c1.2,0.4,2.1,1.1,2.9,2c0.7,0.9,1.1,2.1,1.1,3.4c0,0.6,0,1.1-0.1,1.4H557c0-1.3-0.4-2.2-1.1-2.7c-0.7-0.5-1.6-0.8-2.6-0.8
	c-1.3,0-2.4,0.3-3.5,0.9c-1,0.6-1.5,1.5-1.5,2.6c0,0.5,0.3,1,0.8,1.2c0.5,0.3,1.5,0.6,2.9,1c1.4,0.3,2.2,0.5,2.3,0.6
	c1.2,0.3,2.2,0.6,2.8,0.8c0.6,0.2,1.2,0.5,1.8,0.8c0.6,0.4,1,0.8,1.3,1.3c0.3,0.6,0.5,1.4,0.5,2.4s-0.2,2-0.7,3c-0.4,1-1.1,2-2,2.9
	c-0.9,0.9-2.1,1.6-3.5,2.2c-1.4,0.5-3.1,0.8-4.9,0.8c-1.6,0-3.1-0.2-4.3-0.6C543.9,412.3,542.9,411.6,542.2,410.7L542.2,410.7z"/>
<path d="M210,468L210,468l5.3-12.8h1.7v2.9l0,0l-1.9,5.1h1.9v2.2h-2.7l-1.1,2.6H210z M237.2,455.2L237.2,455.2v2.2h-0.1H234v8.4h3.1
	c0.1,0,0.1,0,0.1,0v2.2H231v-12.8L237.2,455.2L237.2,455.2z M217,455.2L217,455.2h1.8L224,468h-3.4l-0.9-2.6H217v-2.2h1.9l-1.9-5.1
	l0,0V455.2z M284.6,468L284.6,468v-12.8h3.1V468H284.6z M270.3,464.1L270.3,464.1h3c0,0.5,0.2,0.9,0.4,1.2c0.3,0.3,0.6,0.5,1.1,0.7
	c0.4,0.1,0.9,0.2,1.4,0.2c2.1,0,3.2-0.5,3.3-1.6c0-0.4-0.1-0.6-0.3-0.9c-0.2-0.2-0.5-0.4-0.8-0.4c-0.3-0.1-0.8-0.2-1.6-0.4
	c-0.6-0.1-1.1-0.2-1.4-0.3c-1-0.2-1.9-0.4-2.5-0.6c-0.7-0.3-1.2-0.6-1.7-1.2c-0.4-0.5-0.6-1.2-0.6-2.1c0-0.8,0.3-1.5,0.7-2.1
	c0.4-0.6,1.1-1,1.9-1.4c0.8-0.3,1.8-0.5,3-0.5c1.1,0,2,0.1,2.8,0.4c0.8,0.3,1.4,0.6,1.8,1c0.4,0.4,0.8,0.8,1,1.3s0.3,1,0.3,1.4h-3
	c-0.1-1.3-1.2-1.9-3.1-1.9c-0.7,0-1.3,0.1-1.8,0.4c-0.5,0.2-0.7,0.6-0.8,1.1c0,0.7,0.4,1.1,1.2,1.3c0.7,0.2,1.4,0.3,2.1,0.5
	c0.6,0.1,1.1,0.2,1.4,0.3c1.1,0.2,1.9,0.5,2.5,0.7c0.6,0.3,1.1,0.6,1.4,1.1c0.3,0.4,0.5,1,0.5,1.7c0,0.9-0.2,1.6-0.7,2.2
	c-0.5,0.6-1,1-1.7,1.3c-0.6,0.3-1.3,0.5-1.8,0.6c-0.6,0.1-1.1,0.1-1.5,0.1C272.6,468.4,270.4,466.9,270.3,464.1z M265.1,468
	L265.1,468v-12.8h3.1V468H265.1z M255.4,468L255.4,468l-3.5-9.1l-1.4-3.7h3.3l3,9.1l0.2,0.6l0,0l3-9.1l0.2-0.6h3.2l-3.6,9.1
	l-1.5,3.7H255.4z M245.6,468L245.6,468v-12.8h3.1V468H245.6z M237.2,468L237.2,468v-2.2c1.1,0,1.9-0.5,2.4-1.3
	c0.5-0.9,0.8-1.9,0.8-3.2c0-0.8-0.1-1.5-0.3-2c-0.2-0.6-0.5-1-1-1.4c-0.5-0.3-1.1-0.5-1.9-0.5v-2.2h0.4c1.4,0,2.5,0.3,3.4,0.8
	c0.9,0.6,1.5,1.3,1.9,2.2s0.6,1.9,0.6,2.9c0,1.2-0.2,2.3-0.6,3.3c-0.4,1.1-1,1.9-1.9,2.6s-2.1,1-3.5,1H237.2L237.2,468z M297,454.9
	L297,454.9v2.3h-0.1c-0.6,0-1.2,0.1-1.8,0.4c-0.6,0.3-1.1,0.7-1.5,1.3c-0.4,0.6-0.6,1.4-0.7,2.4c0,1.4,0.3,2.5,1,3.4
	c0.6,0.9,1.7,1.4,3.1,1.4v2.3c-1.4,0-2.7-0.3-3.7-0.8c-1.1-0.5-1.9-1.3-2.4-2.2c-0.6-0.9-0.9-2-0.9-3.1v-0.5c0-1.4,0.2-2.6,0.7-3.6
	s1.3-1.8,2.4-2.4C294.1,455.2,295.4,454.9,297,454.9z M306.4,468L306.4,468v-12.8h3.3l5.9,8.9l0,0v-8.9h2.9V468h-3.1l-6-9.1l0,0v9.1
	H306.4z M297,468.4L297,468.4v-2.3l0,0c0.9,0,1.7-0.2,2.3-0.7c0.6-0.4,1-1,1.3-1.6s0.4-1.3,0.4-2c0-1.2-0.3-2.2-0.8-3.2
	s-1.6-1.5-3.2-1.5v-2.3h0.1c0.9,0,1.8,0.1,2.6,0.4c0.8,0.3,1.6,0.7,2.3,1.2c0.7,0.5,1.2,1.3,1.6,2.1c0.4,0.9,0.6,1.9,0.6,3.1
	c0,1-0.2,2-0.5,2.8c-0.3,0.8-0.8,1.5-1.4,2.1c-0.6,0.6-1.4,1-2.3,1.3C299,468.2,298.1,468.4,297,468.4L297,468.4z M333.7,454.9
	L333.7,454.9v2.3h-0.1c-0.6,0-1.2,0.1-1.8,0.4c-0.6,0.3-1.1,0.7-1.5,1.3s-0.6,1.4-0.7,2.4c0,1.4,0.3,2.5,0.9,3.4s1.7,1.4,3.1,1.4
	v2.3c-1.4,0-2.7-0.3-3.7-0.8c-1.1-0.5-1.9-1.3-2.4-2.2c-0.6-0.9-0.9-2-0.9-3.1v-0.5c0-1.4,0.3-2.6,0.7-3.6c0.5-1,1.3-1.8,2.4-2.4
	C330.7,455.2,332,454.9,333.7,454.9z M343.2,468L343.2,468v-12.8h10.6v2.3h-7.4v2.9h6.5v2.3h-6.5v5.4L343.2,468L343.2,468z
	 M333.7,468.4L333.7,468.4v-2.3l0,0c0.9,0,1.7-0.2,2.3-0.7c0.6-0.4,1-1,1.3-1.6s0.4-1.3,0.4-2c0-1.2-0.3-2.2-0.8-3.2
	s-1.6-1.5-3.2-1.5v-2.3h0.1c0.9,0,1.8,0.1,2.6,0.4c0.8,0.3,1.6,0.7,2.2,1.2c0.7,0.5,1.2,1.3,1.6,2.1c0.4,0.9,0.6,1.9,0.6,3.1
	c0,1-0.2,2-0.5,2.8s-0.8,1.5-1.4,2.1s-1.4,1-2.3,1.3C335.7,468.2,334.7,468.4,333.7,468.4L333.7,468.4z M364.2,455.7L364.2,455.7v2
	c-0.6,0-1.1,0.3-1.5,0.8s-0.6,1.4-0.7,2.7l0,0c0.3-0.4,0.7-0.7,1.1-0.8c0.3-0.1,0.7-0.2,1-0.2v2c-0.5,0-0.9,0.1-1.2,0.3
	c-0.3,0.2-0.6,0.5-0.7,0.8c-0.2,0.3-0.2,0.7-0.2,1.1c0,0.2,0,0.3,0,0.4c0.1,0.6,0.3,1.1,0.8,1.5c0.4,0.3,0.9,0.5,1.4,0.5v2
	c-0.9,0-1.6-0.2-2.3-0.5c-0.7-0.3-1.2-0.8-1.6-1.3c-0.4-0.6-0.7-1.2-0.9-2c-0.2-0.8-0.3-1.6-0.3-2.5c0-0.1,0-0.3,0-0.4s0-0.3,0-0.4
	c0-0.1,0-0.3,0-0.4s0-0.3,0-0.4c0.2-1.6,0.6-2.8,1.5-3.7C361.5,456.3,362.7,455.8,364.2,455.7z M364.2,457.7L364.2,457.7v-2
	c0.1,0,0.2,0,0.3,0c0.5,0,1,0.1,1.5,0.2c0.6,0.1,1,0.3,1.3,0.5c0.5,0.3,0.8,0.6,1.1,1c0.2,0.4,0.4,0.9,0.5,1.5H366
	c0-0.4-0.2-0.7-0.5-0.9S364.8,457.7,364.2,457.7C364.3,457.7,364.3,457.7,364.2,457.7z M364.2,468.8L364.2,468.8v-2
	c0.1,0,0.1,0,0.1,0c0.6,0,1.1-0.2,1.4-0.6c0.3-0.4,0.5-1,0.6-1.7c0-0.7-0.2-1.3-0.6-1.7c-0.4-0.4-0.9-0.6-1.5-0.6l0,0v-2
	c0.1,0,0.3,0,0.4,0c0.9,0,1.7,0.2,2.4,0.5c0.7,0.4,1.2,0.9,1.6,1.5c0.4,0.6,0.6,1.3,0.6,2c0,0.5-0.1,1.1-0.3,1.6
	c-0.2,0.5-0.5,1-0.9,1.5c-0.4,0.4-0.9,0.8-1.5,1.1c-0.6,0.3-1.4,0.4-2.2,0.4H364.2z M376.6,455.7L376.6,455.7v2
	c-0.6,0-1,0.1-1.3,0.4c-0.3,0.3-0.5,0.8-0.6,1.4c-0.1,0.6-0.2,1.5-0.2,2.7c0,1.1,0.1,2,0.2,2.6s0.3,1.1,0.6,1.4
	c0.3,0.3,0.7,0.4,1.3,0.4v2h-0.1c-1.1,0-2-0.2-2.7-0.6s-1.2-0.9-1.5-1.6c-0.3-0.6-0.5-1.3-0.6-2s-0.2-1.2-0.2-1.5c0-0.2,0-0.5,0-0.9
	c0-1,0.1-1.8,0.2-2.6c0.2-0.8,0.4-1.5,0.8-2c0.4-0.6,0.9-1,1.5-1.4C374.7,455.9,375.5,455.7,376.6,455.7L376.6,455.7z M376.6,468.8
	L376.6,468.8v-2l0,0c0.4,0,0.8-0.1,1-0.3c0.3-0.2,0.5-0.4,0.6-0.8c0.2-0.4,0.3-0.8,0.3-1.4c0.1-0.6,0.1-1.3,0.1-2.1
	c0-0.8,0-1.5-0.1-2.1c-0.1-0.6-0.2-1-0.3-1.4c-0.2-0.3-0.4-0.6-0.6-0.8c-0.3-0.2-0.6-0.2-1-0.2l0,0v-2c1,0,1.9,0.2,2.5,0.5
	c0.7,0.4,1.2,0.8,1.6,1.4c0.4,0.6,0.6,1.2,0.7,1.9c0.1,0.7,0.2,1.4,0.2,2.3v0.6c0,2-0.4,3.6-1.2,4.7
	C379.7,468.2,378.4,468.7,376.6,468.8z M387.5,457.3L387.5,457.3v3.2l-1.9,2.8h1.9v2h-4v-2.2L387.5,457.3z M422.3,468L422.3,468
	v-8.8h-3.5v-1.7c2.5,0,3.9-0.7,4-2.2h2.4V468H422.3z M406.5,464.1L406.5,464.1h2.8c0,1.5,0.8,2.2,2.2,2.2c0.6,0,1-0.2,1.4-0.5
	c0.4-0.3,0.6-0.8,0.6-1.3c0-0.7-0.2-1.3-0.7-1.6s-1.3-0.5-2.3-0.5h-0.2v-1.8c1,0,1.7-0.1,2.1-0.3c0.5-0.2,0.7-0.6,0.8-1
	c0-0.6-0.2-1.1-0.5-1.5c-0.3-0.3-0.7-0.5-1.3-0.5l0,0c-1.3,0-2,0.7-2,2.1h-2.7c0-0.7,0.2-1.4,0.5-2s0.8-1.1,1.5-1.5s1.6-0.6,2.7-0.6
	c1,0,1.9,0.2,2.5,0.5c0.7,0.3,1.2,0.7,1.6,1.3c0.3,0.5,0.5,1.1,0.5,1.7c0,0.1,0,0.3,0,0.6c-0.2,0.9-0.7,1.5-1.7,1.9l0,0
	c1.5,0.4,2.2,1.5,2.2,3.1c0,0.6-0.2,1.3-0.6,1.9c-0.4,0.6-1,1.1-1.8,1.5s-1.8,0.6-2.9,0.6c-1.2,0-2.1-0.3-2.8-0.7
	c-0.7-0.4-1.2-0.9-1.5-1.5C406.6,465.6,406.5,464.9,406.5,464.1z M397,468L397,468c0.1-0.8,0.2-1.7,0.4-2.5c0.2-0.8,0.5-1.7,0.9-2.5
	c0.4-0.9,0.9-1.7,1.6-2.6c0.6-0.9,1.4-1.8,2.3-2.7h-7.3v-2.2h10.3v1.9c-0.8,0.8-1.5,1.6-2.1,2.4s-1.2,1.7-1.6,2.5
	c-0.5,0.9-0.8,1.8-1.1,2.7c-0.3,0.9-0.4,1.9-0.5,2.9H397V468z M387.5,465.3L387.5,465.3v-2h1.8l0.1-5.5l0,0l-1.8,2.7v-3.2l1.4-2h3.3
	v7.9h1.6v2h-1.6v2.8h-2.9v-2.8L387.5,465.3L387.5,465.3z M442.6,454.9L442.6,454.9v2.3h-0.1c-0.6,0-1.2,0.1-1.8,0.4
	c-0.6,0.3-1.1,0.7-1.5,1.3s-0.6,1.4-0.7,2.4c0,1.4,0.3,2.5,1,3.4c0.6,0.9,1.7,1.4,3.1,1.4v2.3c-1.4,0-2.7-0.3-3.7-0.8
	c-1.1-0.5-1.9-1.3-2.4-2.2c-0.6-0.9-0.9-2-0.9-3.1v-0.5c0-1.4,0.2-2.6,0.7-3.6s1.3-1.8,2.4-2.4C439.7,455.2,441,454.9,442.6,454.9z
	 M452,468L452,468v-12.8h3.3l5.9,8.9l0,0v-8.9h2.9V468H461l-6-9.1l0,0v9.1H452z M442.6,468.4L442.6,468.4v-2.3l0,0
	c0.9,0,1.7-0.2,2.3-0.7c0.6-0.4,1-1,1.3-1.6s0.4-1.3,0.4-2c0-1.2-0.3-2.2-0.8-3.2s-1.6-1.5-3.2-1.5v-2.3h0.1c0.9,0,1.8,0.1,2.6,0.4
	c0.8,0.3,1.6,0.7,2.3,1.2c0.7,0.5,1.2,1.3,1.6,2.1c0.4,0.9,0.6,1.9,0.6,3.1c0,1-0.2,2-0.5,2.8s-0.8,1.5-1.5,2.1
	c-0.6,0.6-1.4,1-2.3,1.3C444.6,468.2,443.7,468.4,442.6,468.4L442.6,468.4z M477.4,467L477.4,467l-0.4,1h0.4V467z M477.4,455.2
	L477.4,455.2v2.3h-4.1V468h-3.1v-10.6h-4.5v-2.3h11.7V455.2z M477.4,457.5L477.4,457.5h0.4v-2.3h-0.4V457.5z M484,455.2L484,455.2
	v2.9l0,0l-1.9,5.1h1.9v2.2h-2.7l-1,2.6h-2.8v-1l4.8-11.8H484z M484,465.4L484,465.4v-2.2h1.9l-1.9-5.1l0,0v-2.9h1.8L491,468h-3.4
	l-0.9-2.6H484z M499.1,455.2L499.1,455.2v2.2h-3v3.4h3v2.2h-3v5h-3v-12.8L499.1,455.2L499.1,455.2z M507.7,468L507.7,468v-12.8h3.1
	V468H507.7z M499.1,463L499.1,463v-2.2h0.8c0.8,0,1.4-0.2,1.7-0.5c0.3-0.3,0.5-0.8,0.5-1.3s-0.2-0.8-0.5-1.2
	c-0.3-0.3-0.9-0.5-1.6-0.5h-0.9v-2.2h1.5c1,0,1.9,0.2,2.6,0.5s1.2,0.8,1.5,1.3s0.5,1.1,0.5,1.7c0,0.5-0.1,0.9-0.3,1.3
	c-0.2,0.4-0.4,0.8-0.8,1.1c-0.4,0.3-0.8,0.5-1.2,0.7c0.7,0.2,1.2,0.6,1.5,1c0.2,0.5,0.4,1.1,0.4,1.8v0.5c0,0.3,0,0.5,0,0.6
	c0,0.6,0.1,1,0.2,1.3s0.3,0.5,0.5,0.5v0.4H502c-0.1-0.3-0.2-0.6-0.2-0.9c-0.1-0.4-0.1-0.7-0.1-1.1s0-0.8,0-1.1c0-0.4-0.1-0.8-0.2-1
	s-0.3-0.4-0.6-0.6c-0.3-0.1-0.8-0.2-1.5-0.2L499.1,463L499.1,463z M520.1,454.9L520.1,454.9v2.3H520c-0.6,0-1.2,0.1-1.8,0.4
	c-0.6,0.3-1.1,0.7-1.5,1.3s-0.6,1.4-0.7,2.4c0,1.4,0.3,2.5,0.9,3.4c0.6,0.9,1.7,1.4,3.1,1.4v2.3c-1.4,0-2.7-0.3-3.7-0.8
	s-1.9-1.3-2.4-2.2c-0.6-0.9-0.9-2-0.9-3.1v-0.5c0-1.4,0.2-2.6,0.7-3.6s1.3-1.8,2.4-2.4C517.2,455.2,518.5,454.9,520.1,454.9z
	 M570.7,468L570.7,468v-2.6h3.1v2.6H570.7z M555.4,461.4L555.4,461.4c0-1,0.2-1.9,0.6-2.7c0.3-0.8,0.8-1.5,1.4-2
	c0.6-0.6,1.3-1,2.1-1.3c0.8-0.3,1.8-0.4,2.8-0.5c1.2,0,2.3,0.2,3.2,0.6c0.9,0.4,1.7,1,2.2,1.6c0.5,0.7,0.9,1.5,1,2.3h-3.1
	c-0.4-1.5-1.5-2.2-3.1-2.2c-1.2,0-2.2,0.4-2.9,1.2c-0.7,0.8-1,1.9-1,3.4v0.1c0,0.7,0.2,1.4,0.4,2c0.3,0.6,0.7,1.1,1.2,1.5
	c0.5,0.4,1.2,0.6,2,0.6c1.8,0,3-0.8,3.4-2.4h3.1c-0.2,0.9-0.6,1.7-1.1,2.4c-0.5,0.7-1.2,1.3-2.1,1.7c-0.9,0.4-1.9,0.6-3.1,0.6
	c-1.3,0-2.5-0.2-3.5-0.7s-1.9-1.2-2.5-2.2s-0.9-2.2-0.9-3.7C555.4,461.6,555.4,461.5,555.4,461.4z M540.9,468L540.9,468v-12.8h3.3
	l5.9,8.9l0,0v-8.9h2.9V468h-3.1l-6-9.1l0,0v9.1H540.9z M535.1,468L535.1,468v-12.8h3.1V468H535.1z M520.1,468.4v-2.3l0,0
	c0.9,0,1.7-0.2,2.3-0.7c0.6-0.4,1-1,1.3-1.6c0.3-0.6,0.4-1.3,0.4-2c0-1.2-0.3-2.2-0.8-3.2s-1.6-1.5-3.2-1.5v-2.3h0.1
	c0.9,0,1.8,0.1,2.6,0.4c0.8,0.3,1.6,0.7,2.2,1.2c0.7,0.5,1.2,1.3,1.6,2.1c0.4,0.9,0.6,1.9,0.6,3.1c0,1-0.2,2-0.5,2.8
	s-0.8,1.5-1.4,2.1c-0.6,0.6-1.4,1-2.3,1.3C522.1,468.2,521.2,468.4,520.1,468.4L520.1,468.4z"/>
</svg>
